<mxfile host="Electron" modified="2024-05-06T01:59:37.397Z" agent="Mozilla/5.0 (Windows NT 10.0; Win64; x64) AppleWebKit/537.36 (KHTML, like Gecko) draw.io/24.1.0 Chrome/120.0.6099.109 Electron/28.1.0 Safari/537.36" etag="5GmNGJLWYDwzeFj0TvTW" version="24.1.0" type="device">
  <diagram name="Page-1" id="xlhWtXc-ja_SkXMT3Q7Q">
    <mxGraphModel dx="2160" dy="1315" grid="1" gridSize="10" guides="1" tooltips="1" connect="1" arrows="1" fold="1" page="1" pageScale="1" pageWidth="850" pageHeight="1100" math="0" shadow="0">
      <root>
        <mxCell id="0" />
        <mxCell id="1" parent="0" />
        <mxCell id="0ySc5cR9qCaMKcy234kB-1" value="This is a sample diagram" style="label;whiteSpace=wrap;html=1;align=center;verticalAlign=bottom;spacingLeft=0;spacingBottom=4;imageAlign=center;imageVerticalAlign=top;image=img/clipart/Gear_128x128.png" vertex="1" parent="1">
          <mxGeometry x="246" y="521" width="170" height="80" as="geometry" />
        </mxCell>
        <mxCell id="0ySc5cR9qCaMKcy234kB-2" value="" style="sketch=0;points=[[0,0,0],[0.25,0,0],[0.5,0,0],[0.75,0,0],[1,0,0],[0,1,0],[0.25,1,0],[0.5,1,0],[0.75,1,0],[1,1,0],[0,0.25,0],[0,0.5,0],[0,0.75,0],[1,0.25,0],[1,0.5,0],[1,0.75,0]];outlineConnect=0;fontColor=#232F3E;fillColor=#7AA116;strokeColor=#ffffff;dashed=0;verticalLabelPosition=bottom;verticalAlign=top;align=center;html=1;fontSize=12;fontStyle=0;aspect=fixed;shape=mxgraph.aws4.resourceIcon;resIcon=mxgraph.aws4.s3;" vertex="1" parent="1">
          <mxGeometry x="446" y="651" width="78" height="78" as="geometry" />
        </mxCell>
        <mxCell id="0ySc5cR9qCaMKcy234kB-3" value="" style="sketch=0;outlineConnect=0;fontColor=#232F3E;gradientColor=none;fillColor=#7AA116;strokeColor=none;dashed=0;verticalLabelPosition=bottom;verticalAlign=top;align=center;html=1;fontSize=12;fontStyle=0;aspect=fixed;pointerEvents=1;shape=mxgraph.aws4.bucket;" vertex="1" parent="1">
          <mxGeometry x="686" y="689" width="38.46" height="40" as="geometry" />
        </mxCell>
        <mxCell id="0ySc5cR9qCaMKcy234kB-4" value="" style="sketch=0;outlineConnect=0;fontColor=#232F3E;gradientColor=none;fillColor=#7AA116;strokeColor=none;dashed=0;verticalLabelPosition=bottom;verticalAlign=top;align=center;html=1;fontSize=12;fontStyle=0;aspect=fixed;pointerEvents=1;shape=mxgraph.aws4.s3_select;" vertex="1" parent="1">
          <mxGeometry x="576" y="671" width="58" height="58" as="geometry" />
        </mxCell>
        <mxCell id="0ySc5cR9qCaMKcy234kB-5" value="" style="sketch=0;points=[[0,0,0],[0.25,0,0],[0.5,0,0],[0.75,0,0],[1,0,0],[0,1,0],[0.25,1,0],[0.5,1,0],[0.75,1,0],[1,1,0],[0,0.25,0],[0,0.5,0],[0,0.75,0],[1,0.25,0],[1,0.5,0],[1,0.75,0]];outlineConnect=0;fontColor=#232F3E;fillColor=#E7157B;strokeColor=#ffffff;dashed=0;verticalLabelPosition=bottom;verticalAlign=top;align=center;html=1;fontSize=12;fontStyle=0;aspect=fixed;shape=mxgraph.aws4.resourceIcon;resIcon=mxgraph.aws4.appsync;" vertex="1" parent="1">
          <mxGeometry x="126" y="651" width="78" height="78" as="geometry" />
        </mxCell>
        <mxCell id="0ySc5cR9qCaMKcy234kB-6" value="" style="dashed=0;outlineConnect=0;html=1;align=center;labelPosition=center;verticalLabelPosition=bottom;verticalAlign=top;shape=mxgraph.weblogos.github" vertex="1" parent="1">
          <mxGeometry x="127.5" y="371" width="75" height="75" as="geometry" />
        </mxCell>
        <mxCell id="0ySc5cR9qCaMKcy234kB-7" value="" style="edgeStyle=elbowEdgeStyle;elbow=horizontal;endArrow=classic;html=1;curved=0;rounded=0;endSize=8;startSize=8;" edge="1" parent="1" source="0ySc5cR9qCaMKcy234kB-1" target="0ySc5cR9qCaMKcy234kB-5">
          <mxGeometry width="50" height="50" relative="1" as="geometry">
            <mxPoint x="286" y="591" as="sourcePoint" />
            <mxPoint x="336" y="541" as="targetPoint" />
          </mxGeometry>
        </mxCell>
        <mxCell id="0ySc5cR9qCaMKcy234kB-8" value="" style="edgeStyle=elbowEdgeStyle;elbow=horizontal;endArrow=classic;html=1;curved=0;rounded=0;endSize=8;startSize=8;" edge="1" parent="1" source="0ySc5cR9qCaMKcy234kB-1" target="0ySc5cR9qCaMKcy234kB-2">
          <mxGeometry width="50" height="50" relative="1" as="geometry">
            <mxPoint x="256" y="586" as="sourcePoint" />
            <mxPoint x="214" y="700" as="targetPoint" />
          </mxGeometry>
        </mxCell>
        <mxCell id="0ySc5cR9qCaMKcy234kB-9" value="" style="edgeStyle=elbowEdgeStyle;elbow=horizontal;endArrow=classic;html=1;curved=0;rounded=0;endSize=8;startSize=8;" edge="1" parent="1" source="0ySc5cR9qCaMKcy234kB-2" target="0ySc5cR9qCaMKcy234kB-4">
          <mxGeometry width="50" height="50" relative="1" as="geometry">
            <mxPoint x="536" y="541" as="sourcePoint" />
            <mxPoint x="566" y="655" as="targetPoint" />
          </mxGeometry>
        </mxCell>
        <mxCell id="0ySc5cR9qCaMKcy234kB-10" value="" style="edgeStyle=elbowEdgeStyle;elbow=horizontal;endArrow=classic;html=1;curved=0;rounded=0;endSize=8;startSize=8;" edge="1" parent="1" source="0ySc5cR9qCaMKcy234kB-4" target="0ySc5cR9qCaMKcy234kB-3">
          <mxGeometry width="50" height="50" relative="1" as="geometry">
            <mxPoint x="634" y="695" as="sourcePoint" />
            <mxPoint x="686" y="705" as="targetPoint" />
          </mxGeometry>
        </mxCell>
        <mxCell id="0ySc5cR9qCaMKcy234kB-11" value="" style="edgeStyle=elbowEdgeStyle;elbow=vertical;endArrow=classic;html=1;curved=0;rounded=0;endSize=8;startSize=8;" edge="1" parent="1" source="0ySc5cR9qCaMKcy234kB-1" target="0ySc5cR9qCaMKcy234kB-6">
          <mxGeometry width="50" height="50" relative="1" as="geometry">
            <mxPoint x="286" y="591" as="sourcePoint" />
            <mxPoint x="336" y="541" as="targetPoint" />
          </mxGeometry>
        </mxCell>
      </root>
    </mxGraphModel>
  </diagram>
</mxfile>
